<svg width="26" height="25" viewBox="0 0 26 25" fill="none" xmlns="http://www.w3.org/2000/svg">
<path d="M23.2966 9.99984C23.2966 9.66832 23.1649 9.35037 22.9305 9.11595C22.6961 8.88152 22.3781 8.74983 22.0466 8.74983C21.7151 8.74983 21.3971 8.88152 21.1627 9.11595C20.9283 9.35037 20.7966 9.66832 20.7966 9.99984H23.2966ZM5.79661 9.99984C5.79661 9.66832 5.66491 9.35037 5.43049 9.11595C5.19607 8.88152 4.87813 8.74983 4.54661 8.74983C4.21509 8.74983 3.89715 8.88152 3.66273 9.11595C3.42831 9.35037 3.29661 9.66832 3.29661 9.99984H5.79661ZM23.6629 13.3836C23.8986 13.6113 24.2144 13.7373 24.5421 13.7345C24.8699 13.7316 25.1834 13.6002 25.4151 13.3684C25.6469 13.1366 25.7784 12.8231 25.7812 12.4954C25.7841 12.1676 25.6581 11.8519 25.4304 11.6161L23.6629 13.3836ZM13.2966 1.24975L14.1804 0.365987C13.946 0.131646 13.6281 0 13.2966 0C12.9652 0 12.6473 0.131646 12.4129 0.365987L13.2966 1.24975ZM1.16286 11.6161C1.04347 11.7314 0.948245 11.8693 0.882734 12.0219C0.817222 12.1744 0.782739 12.3384 0.781297 12.5044C0.779855 12.6703 0.811482 12.8349 0.874333 12.9886C0.937184 13.1422 1.03 13.2818 1.14737 13.3991C1.26473 13.5165 1.4043 13.6093 1.55792 13.6722C1.71154 13.735 1.87614 13.7666 2.04211 13.7652C2.20809 13.7638 2.37211 13.7293 2.52462 13.6638C2.67712 13.5982 2.81505 13.503 2.93036 13.3836L1.16286 11.6161ZM7.04661 25H19.5466V22.5H7.04661V25ZM23.2966 21.25V9.99984H20.7966V21.25H23.2966ZM5.79661 21.25V9.99984H3.29661V21.25H5.79661ZM25.4304 11.6161L14.1804 0.365987L12.4129 2.13351L23.6629 13.3836L25.4304 11.6161ZM12.4129 0.365987L1.16286 11.6161L2.93036 13.3836L14.1804 2.13351L12.4129 0.365987ZM19.5466 25C20.5412 25 21.495 24.6049 22.1983 23.9016C22.9015 23.1984 23.2966 22.2445 23.2966 21.25H20.7966C20.7966 21.5815 20.6649 21.8994 20.4305 22.1339C20.1961 22.3683 19.8781 22.5 19.5466 22.5V25ZM7.04661 22.5C6.71509 22.5 6.39715 22.3683 6.16273 22.1339C5.92831 21.8994 5.79661 21.5815 5.79661 21.25H3.29661C3.29661 22.2445 3.6917 23.1984 4.39496 23.9016C5.09822 24.6049 6.05205 25 7.04661 25V22.5Z" fill="url(#paint0_linear_112_335)" fill-opacity="0.5"/>
<defs>
<linearGradient id="paint0_linear_112_335" x1="13.2812" y1="0" x2="13.2813" y2="25" gradientUnits="userSpaceOnUse">
<stop stop-color="#82E2F7"/>
<stop offset="1" stop-color="#35B6FF"/>
</linearGradient>
</defs>
</svg>
