<svg width="27" height="27" viewBox="0 0 27 27" fill="none" xmlns="http://www.w3.org/2000/svg">
<path d="M13.2237 9.82394C12.3064 9.82394 11.4474 10.174 10.797 10.8137C10.1496 11.4535 9.79065 12.2984 9.79065 13.2007C9.79065 14.103 10.1496 14.9479 10.797 15.5876C11.4474 16.2244 12.3064 16.5774 13.2237 16.5774C14.1411 16.5774 15.0001 16.2244 15.6505 15.5876C16.2979 14.9479 16.6568 14.103 16.6568 13.2007C16.6568 12.2984 16.2979 11.4535 15.6505 10.8137C15.3328 10.4989 14.9547 10.2492 14.5381 10.0793C14.1215 9.90938 13.6747 9.82258 13.2237 9.82394ZM25.8731 16.9305L23.8666 15.2436C23.9618 14.6703 24.0108 14.0849 24.0108 13.5024C24.0108 12.92 23.9618 12.3316 23.8666 11.7613L25.8731 10.0744C26.0247 9.94678 26.1332 9.77679 26.1841 9.58705C26.2351 9.39731 26.2261 9.1968 26.1584 9.01219L26.1308 8.93373C25.5786 7.41493 24.7512 6.00709 23.6887 4.77844L23.6335 4.71507C23.5044 4.56585 23.3325 4.45859 23.1403 4.40741C22.948 4.35624 22.7445 4.36355 22.5566 4.42839L20.0654 5.30049C19.145 4.55815 18.1203 3.97273 17.0097 3.56535L16.528 1.00337C16.4916 0.810365 16.3965 0.632807 16.2551 0.494283C16.1137 0.35576 15.9328 0.262827 15.7364 0.227832L15.6536 0.212744C14.0582 -0.0709146 12.377 -0.0709146 10.7816 0.212744L10.6988 0.227832C10.5024 0.262827 10.3215 0.35576 10.1801 0.494283C10.0388 0.632807 9.94357 0.810365 9.90723 1.00337L9.42249 3.57742C8.32239 3.98805 7.29757 4.57205 6.38823 5.30653L3.8786 4.42839C3.69074 4.36304 3.4871 4.35546 3.29475 4.40666C3.1024 4.45787 2.93044 4.56544 2.80174 4.71507L2.74651 4.77844C1.68588 6.0084 0.858681 7.41588 0.304381 8.93373L0.276769 9.01219C0.138709 9.3894 0.252225 9.81187 0.562094 10.0744L2.59311 11.7794C2.498 12.3467 2.45198 12.9261 2.45198 13.4994C2.45198 14.0788 2.498 14.6582 2.59311 15.2195L0.56823 16.9245C0.416657 17.0521 0.308175 17.2221 0.257208 17.4118C0.20624 17.6015 0.215204 17.8021 0.282905 17.9867L0.310517 18.0651C0.865826 19.583 1.68498 20.9862 2.75265 22.2204L2.80787 22.2838C2.93689 22.433 3.10885 22.5403 3.30109 22.5914C3.49333 22.6426 3.69682 22.6353 3.88474 22.5705L6.39437 21.6923C7.30863 22.4317 8.32721 23.0171 9.42862 23.4214L9.91337 25.9955C9.94971 26.1885 10.0449 26.3661 10.1863 26.5046C10.3277 26.6431 10.5085 26.736 10.7049 26.771L10.7877 26.7861C12.3988 27.0713 14.0487 27.0713 15.6597 26.7861L15.7426 26.771C15.9389 26.736 16.1198 26.6431 16.2612 26.5046C16.4026 26.3661 16.4978 26.1885 16.5341 25.9955L17.0158 23.4335C18.1264 23.0231 19.1511 22.4407 20.0715 21.6984L22.5627 22.5705C22.7506 22.6358 22.9542 22.6434 23.1466 22.5922C23.3389 22.541 23.5109 22.4334 23.6396 22.2838L23.6948 22.2204C24.7625 20.9802 25.5817 19.583 26.137 18.0651L26.1646 17.9867C26.2965 17.6125 26.183 17.193 25.8731 16.9305ZM13.2237 18.5057C10.2447 18.5057 7.83019 16.1308 7.83019 13.2007C7.83019 10.2705 10.2447 7.89566 13.2237 7.89566C16.2028 7.89566 18.6173 10.2705 18.6173 13.2007C18.6173 16.1308 16.2028 18.5057 13.2237 18.5057Z" fill="url(#paint0_linear_112_336)"/>
<defs>
<linearGradient id="paint0_linear_112_336" x1="13.2188" y1="0" x2="13.2188" y2="27" gradientUnits="userSpaceOnUse">
<stop stop-color="#82E2F7"/>
<stop offset="1" stop-color="#35B6FF"/>
</linearGradient>
</defs>
</svg>
