<svg width="25" height="25" viewBox="0 0 25 25" fill="none" xmlns="http://www.w3.org/2000/svg">
<path d="M7.03125 10.9375H11.7188V25H7.03125V10.9375ZM8.59375 23.4375H10.1562V12.5H8.59375V23.4375ZM13.2812 14.0625H17.9688V25H13.2812V14.0625ZM14.8438 23.4375H16.4062V15.625H14.8438V23.4375ZM0.78125 17.1875H5.46875V25H0.78125V17.1875ZM2.34375 23.4375H3.90625V18.75H2.34375V23.4375ZM19.5312 7.8125H24.2188V25H19.5312V7.8125ZM21.0938 23.4375H22.6562V9.375H21.0938V23.4375ZM17.7368 7.58057C17.8914 7.91423 17.9688 8.25195 17.9688 8.59375C17.9688 8.91927 17.9077 9.22445 17.7856 9.50928C17.6636 9.79411 17.4967 10.0423 17.2852 10.2539C17.0736 10.4655 16.8254 10.6323 16.5405 10.7544C16.2557 10.8765 15.9505 10.9375 15.625 10.9375C15.2995 10.9375 14.9943 10.8765 14.7095 10.7544C14.4246 10.6323 14.1764 10.4655 13.9648 10.2539C13.7533 10.0423 13.5864 9.79411 13.4644 9.50928C13.3423 9.22445 13.2812 8.91927 13.2812 8.59375V8.44727C13.2812 8.39844 13.2853 8.34961 13.2935 8.30078L10.9985 7.15332C10.7869 7.36491 10.5387 7.52767 10.2539 7.6416C9.96908 7.75553 9.67611 7.8125 9.375 7.8125C9.0332 7.8125 8.69548 7.73519 8.36182 7.58057L5.23682 10.7056C5.39144 11.0392 5.46875 11.377 5.46875 11.7188C5.46875 12.0443 5.40771 12.3494 5.28564 12.6343C5.16357 12.9191 4.99674 13.1673 4.78516 13.3789C4.57357 13.5905 4.32536 13.7573 4.04053 13.8794C3.7557 14.0015 3.45052 14.0625 3.125 14.0625C2.79948 14.0625 2.4943 14.0015 2.20947 13.8794C1.92464 13.7573 1.67643 13.5905 1.46484 13.3789C1.25326 13.1673 1.08643 12.9191 0.964355 12.6343C0.842285 12.3494 0.78125 12.0443 0.78125 11.7188C0.78125 11.3932 0.842285 11.0881 0.964355 10.8032C1.08643 10.5184 1.25326 10.2702 1.46484 10.0586C1.67643 9.847 1.92464 9.68018 2.20947 9.55811C2.4943 9.43604 2.79948 9.375 3.125 9.375C3.4668 9.375 3.80452 9.45231 4.13818 9.60693L7.26318 6.48193C7.10856 6.14827 7.03125 5.81055 7.03125 5.46875C7.03125 5.14323 7.09229 4.83805 7.21436 4.55322C7.33643 4.26839 7.50326 4.02018 7.71484 3.80859C7.92643 3.59701 8.17464 3.43018 8.45947 3.30811C8.7443 3.18604 9.04948 3.125 9.375 3.125C9.70052 3.125 10.0057 3.18604 10.2905 3.30811C10.5754 3.43018 10.8236 3.59701 11.0352 3.80859C11.2467 4.02018 11.4136 4.26839 11.5356 4.55322C11.6577 4.83805 11.7188 5.14323 11.7188 5.46875V5.61523C11.7188 5.66406 11.7147 5.71289 11.7065 5.76172L14.0015 6.90918C14.2131 6.69759 14.4613 6.53483 14.7461 6.4209C15.0309 6.30697 15.3239 6.25 15.625 6.25C15.9668 6.25 16.3045 6.32731 16.6382 6.48193L19.7632 3.35693C19.6086 3.02327 19.5312 2.68555 19.5312 2.34375C19.5312 2.01823 19.5923 1.71305 19.7144 1.42822C19.8364 1.14339 20.0033 0.895182 20.2148 0.683594C20.4264 0.472005 20.6746 0.305176 20.9595 0.183105C21.2443 0.0610352 21.5495 0 21.875 0C22.2005 0 22.5057 0.0610352 22.7905 0.183105C23.0754 0.305176 23.3236 0.472005 23.5352 0.683594C23.7467 0.895182 23.9136 1.14339 24.0356 1.42822C24.1577 1.71305 24.2188 2.01823 24.2188 2.34375C24.2188 2.66927 24.1577 2.97445 24.0356 3.25928C23.9136 3.54411 23.7467 3.79232 23.5352 4.00391C23.3236 4.21549 23.0754 4.38232 22.7905 4.50439C22.5057 4.62646 22.2005 4.6875 21.875 4.6875C21.5332 4.6875 21.1955 4.61019 20.8618 4.45557L17.7368 7.58057ZM3.125 12.5C3.33659 12.5 3.51969 12.4227 3.67432 12.2681C3.82894 12.1134 3.90625 11.9303 3.90625 11.7188C3.90625 11.5072 3.82894 11.3241 3.67432 11.1694C3.51969 11.0148 3.33659 10.9375 3.125 10.9375C2.91341 10.9375 2.73031 11.0148 2.57568 11.1694C2.42106 11.3241 2.34375 11.5072 2.34375 11.7188C2.34375 11.9303 2.42106 12.1134 2.57568 12.2681C2.73031 12.4227 2.91341 12.5 3.125 12.5ZM21.875 1.5625C21.6634 1.5625 21.4803 1.63981 21.3257 1.79443C21.1711 1.94906 21.0938 2.13216 21.0938 2.34375C21.0938 2.55534 21.1711 2.73844 21.3257 2.89307C21.4803 3.04769 21.6634 3.125 21.875 3.125C22.0866 3.125 22.2697 3.04769 22.4243 2.89307C22.5789 2.73844 22.6562 2.55534 22.6562 2.34375C22.6562 2.13216 22.5789 1.94906 22.4243 1.79443C22.2697 1.63981 22.0866 1.5625 21.875 1.5625ZM9.375 6.25C9.58659 6.25 9.76969 6.17269 9.92432 6.01807C10.0789 5.86344 10.1562 5.68034 10.1562 5.46875C10.1562 5.25716 10.0789 5.07406 9.92432 4.91943C9.76969 4.76481 9.58659 4.6875 9.375 4.6875C9.16341 4.6875 8.98031 4.76481 8.82568 4.91943C8.67106 5.07406 8.59375 5.25716 8.59375 5.46875C8.59375 5.68034 8.67106 5.86344 8.82568 6.01807C8.98031 6.17269 9.16341 6.25 9.375 6.25ZM15.625 9.375C15.8366 9.375 16.0197 9.29769 16.1743 9.14307C16.3289 8.98844 16.4062 8.80534 16.4062 8.59375C16.4062 8.38216 16.3289 8.19906 16.1743 8.04443C16.0197 7.88981 15.8366 7.8125 15.625 7.8125C15.4134 7.8125 15.2303 7.88981 15.0757 8.04443C14.9211 8.19906 14.8438 8.38216 14.8438 8.59375C14.8438 8.80534 14.9211 8.98844 15.0757 9.14307C15.2303 9.29769 15.4134 9.375 15.625 9.375Z" fill="url(#paint0_linear_154_382)"/>
<defs>
<linearGradient id="paint0_linear_154_382" x1="12.5" y1="0" x2="12.5" y2="25" gradientUnits="userSpaceOnUse">
<stop stop-color="#82E2F7"/>
<stop offset="1" stop-color="#35B6FF"/>
</linearGradient>
</defs>
</svg>
